<svg xmlns="http://www.w3.org/2000/svg" viewBox="-1 -1 22 25">
    <g fill-rule="evenodd">
        <path stroke="transparent"
              d="M6.503 19.95c1.089.115 2.267.177 3.497.177s2.408-.062 3.497-.177l.003.148a3.5 3.5 0 1 1-6.997-.148z"/>
        <g transform="translate(0 2.185)">
            <path
                  d="M10 0c3.25.082 5.388 2.306 6.281 6.723.933 4.613 5.966 7.43 2.457 8.846-2.332.94-5.244 1.413-8.738 1.416-3.509 0-6.433-.472-8.772-1.416-3.509-1.415 1.523-4.233 2.456-8.846C4.577 2.306 6.716.082 9.966.001h.017L10 0z"
            />
        </g>
        <circle cx="10" cy="2" r="2" fill="black"/>
    </g>
</svg>
