<svg xmlns="http://www.w3.org/2000/svg" width="20" height="18" viewBox="0 0 20 18">
    <g>
        <path d="M18 0H0v14.727h9v1.637H1.636V18H18v-1.636h-7.364v-1.637h9V0H18zM1.636 1.636H18v11.455H1.636V1.636z"/>
        <path d="M3.682 5.727h2.045v5.318c0 .227.183.41.41.41h.818a.41.41 0 0 0 .409-.41V5.727H9.43l2.049 5.462a.41.41 0 0 0 .384.266h.818c.17 0 .323-.106.383-.266l2.454-6.545a.41.41 0 0 0-.383-.553h-.818a.41.41 0 0 0-.382.263l-1.226 3.2c-.163.431-.308.832-.433 1.206-.118-.372-.25-.771-.399-1.222l-1.271-3.19a.41.41 0 0 0-.38-.257H3.682a.41.41 0 0 0-.41.409v.818c0 .227.183.41.41.41"/>
    </g>
</svg>
