<?xml version="1.0" standalone="yes"?>
<!DOCTYPE svg PUBLIC "-//W3C//DTD SVG 1.1//EN" "http://www.w3.org/Graphics/SVG/1.1/DTD/svg11.dtd">
<svg version="1.1" xmlns="http://www.w3.org/2000/svg" height="16" viewBox="0 0 1067 1024">
    <path d="M449.442 394.391l2.295 0.953c14.583 6.426 31.25-1.66 37.252-18.079l93.219-246.89c5.967-16.349-0.953-34.816-15.501-41.207l-2.295-0.989c-14.583-6.356-31.214 1.66-37.252 18.079l-93.219 246.925c-6.003 16.419 0.953 34.851 15.501 41.207zM817.058 375.112c6.356 16.278 23.164 24.011 37.606 17.267l2.26-1.024c14.442-6.674 20.939-25.247 14.618-41.49l-98.728-244.877c-6.356-16.243-23.199-23.94-37.641-17.231l-2.26 1.059c-14.407 6.674-20.974 25.282-14.618 41.49l98.763 244.807zM259.19 511.269c-119.561 0-216.523 96.927-216.523 216.523s96.962 216.523 216.523 216.523c119.596 0 216.558-96.927 216.558-216.523s-96.962-216.523-216.558-216.523zM399.336 765.997h-101.906v101.906h-76.447v-101.906h-101.906v-76.412h101.906v-101.906h76.447v101.906h101.906v76.412zM944.387 329.562c0 130.472-97.845 130.472-97.845 130.472-65.254 0-97.845-65.218-97.845-65.218l-32.627-65.254-130.719 0.071-32.591 65.183c0 0-32.591 65.218-97.845 65.218 0 0-97.845 0-97.845-130.472h-97.88l32.627 97.88h32.662l3.743 21.928c59.18 14.689 111.192 47.563 149.539 92.619h42.408v66.666c16.666 36.334 26.2 76.588 26.2 119.137 0 38.135-7.627 74.47-21.186 107.767h353.774c28.813 0 38.877-65.218 38.877-65.218l59.004-342.899h32.591l32.627-97.88h-97.668zM618.013 541.989h65.254v228.317h-65.254v-228.317zM781.112 541.989h65.254v228.317h-65.254v-228.317z"></path>
</svg>
