<?xml version="1.0" standalone="yes"?>
<!DOCTYPE svg PUBLIC "-//W3C//DTD SVG 1.1//EN" "http://www.w3.org/Graphics/SVG/1.1/DTD/svg11.dtd">
<svg version="1.1" width="19" height="16" viewBox="0 0 16 16" xmlns="http://www.w3.org/2000/svg">
    <path d="M6.594 1.656c.776-1.467 2.039-1.46 2.812 0l6.188 11.688C16.37 14.81 15.647 16 14.007 16H1.993C.34 16-.367 14.805.406 13.344L6.594 1.656zm2.785 11.707a1.39 1.39 0 0 0-.405-.998c-.27-.28-.599-.42-.985-.42-.385 0-.714.14-.984.42a1.39 1.39 0 0 0-.405.998c0 .397.135.736.405 1.016s.599.42.984.42c.386 0 .715-.14.985-.42.27-.28.405-.619.405-1.016zM7.125 10.37h1.729L9.207 4H6.755l.37 6.37z"/>
</svg>