<svg version="1.1" xmlns="http://www.w3.org/2000/svg" viewBox="0 0 1067 1024">
    <path fill="#000"
          d="M291.541 454.444l2.987 1.13c19.029 7.713 40.875-1.948 48.683-21.582l121.941-294.863c7.808-19.556-1.237-41.606-20.267-49.202l-2.987-1.208c-19.072-7.597-40.832 1.987-48.768 21.621l-121.899 294.863c-7.851 19.595 1.237 41.645 20.309 49.241zM772.352 431.421c8.32 19.439 30.336 28.672 49.195 20.647l2.944-1.286c18.901-7.947 27.435-30.114 19.115-49.514l-129.109-292.448c-8.32-19.4-30.379-28.594-49.237-20.608l-2.987 1.286c-18.816 7.947-27.392 30.152-19.115 49.514l129.195 292.409zM938.923 377.037c0 155.827-128 155.827-128 155.827-85.333 0-128-77.913-128-77.913l-42.667-77.913-170.965 0.078-42.624 77.835c0 0-42.667 77.913-128 77.913 0 0-128 0-128-155.827h-128l42.667 116.87h42.667l77.184 409.513c0 0 13.184 77.913 50.816 77.913h597.333c37.675 0 50.816-77.913 50.816-77.913l77.184-409.513h42.667l42.667-116.87h-127.744zM298.667 630.723h85.333v272.697h-85.333v-272.697zM512 630.723h85.333v272.697h-85.333v-272.697zM725.333 630.723h85.333v272.697h-85.333v-272.697z"></path>
</svg>
