<svg xmlns="http://www.w3.org/2000/svg" viewBox="0 0 20 24">
    <g stroke="none" fill="none" stroke-width="1" fill-rule="evenodd" transform="translate(-121.000000, -89.000000)">
        <g transform="translate(121.000000, 89.000000)" fill-rule="nonzero">
            <path class="dc-icon-bell__heart dc-icon--apply-fill" d="M6.5030795,20.3499985 C7.59155896,20.4643224 8.76983932,20.526819 10,20.526819 C11.2301607,20.526819 12.408441,20.4643224 13.4969205,20.3499985 C13.4989667,20.3991324 13.5,20.448528 13.5,20.4981649 C13.5,22.4311615 11.9329966,23.9981649 10,23.9981649 C8.06700338,23.9981649 6.5,22.4311615 6.5,20.4981649 C6.5,20.448528 6.50103328,20.3991324 6.5030795,20.3499985 Z"></path>
            <path class="dc-icon-bell__body-stroke dc-icon--apply-fill" d="M16.2814797,9.51230247 C17.2144073,14.1254079 22.2465573,16.9430717 18.7376881,18.3584563 C16.4061095,19.2989532 13.4935468,19.770743 9.99999999,19.7738257 C6.49113081,19.7738409 3.56707315,19.3020461 1.22782703,18.3584563 C-2.28104216,16.9430717 2.75110779,14.1254079 3.68403546,9.51230247 C4.57741481,5.09475409 6.71570362,2.87073057 9.96551512,2.79000092 C13.2498115,2.87073057 15.3881003,5.09475409 16.2814797,9.51230247 Z"></path>
            <path class="dc-icon-bell__body-fill" d="M14.5662044,9.8590135 C14.880605,11.4136494 15.5324817,12.7786279 16.5828959,14.3990455 C16.7990532,14.7324998 17.5320781,15.8161048 17.667833,16.0258217 C17.8583489,16.3201347 17.9954949,16.5523262 18.0872815,16.733625 C15.9788616,17.5841092 13.2832792,18.0207516 9.99845578,18.0236501 C6.70030868,18.0236637 3.99372514,17.5869617 1.88247769,16.7353406 C1.97002026,16.5523262 2.1071662,16.3201347 2.29768216,16.0258217 C2.433437,15.8161048 3.16646189,14.7324998 3.3826192,14.3990455 C4.43303342,12.7786279 5.08491017,11.4136494 5.39931071,9.8590135 C6.13583659,6.21706821 7.63849492,4.60983117 9.98275757,4.54000092 C12.3270202,4.60983117 13.8296785,6.21706821 14.5662044,9.8590135 Z" fill="#FFFFFF"></path>
            <circle  class="dc-icon-bell__hook dc-icon--apply-fill" cx="9.94999695" cy="2.25" r="2.25"></circle>
        </g>
    </g>
</svg>
