<?xml version="1.0" encoding="UTF-8"?>
<svg viewBox="0 0 18 22" xmlns="http://www.w3.org/2000/svg">
    <g fill="none" fill-rule="evenodd">
        <g transform="translate(.5)">
            <path class="dc-icon--no-stroke" fill="#fff"
                  d="M1.78947 4.4h13.42106v14.96c0 1.45803-1.18197 2.64-2.64 2.64H4.42947c-1.45803 0-2.64-1.18197-2.64-2.64V4.4z"/>
            <path class="dc-icon--apply-stroke dc-icon--no-fill" stroke="#333" strokeWidth="1.3"
                  d="M2.43947 5.05v14.31c0 1.09905.89096 1.99 1.99 1.99h8.14106c1.09904 0 1.99-.89095 1.99-1.99V5.05H2.43947z"/>
        </g>
        <g transform="translate(.5)">
            <rect class="dc-icon--no-stroke" fill="#fff" x="5.36842" width="6.26316" height="6.16" rx="1.76"/>
            <rect class="dc-icon--apply-stroke dc-icon--no-fill" stroke="#333" strokeWidth="1.3" x="6.01842" y=".65"
                  width="4.96316" height="4.86" rx="1.76"/>
        </g>
        <g transform="translate(.5)">
            <path class="dc-icon--no-stroke" fill="#fff"
                  d="M0 4.4c2.47179-1.76 5.45424-2.64 8.94737-2.64C11.844 1.76 14.5282 2.64 17 4.4v1.76H0V4.4z" id="c"/>
            <path class="dc-icon--apply-stroke dc-icon--no-fill" stroke="#333" stroke-width="1.3"
                  d="M.65 4.74035V5.51h15.7v-.77055C14.06364 3.1839 11.60119 2.41 8.94737 2.41 5.71344 2.41 2.95335 3.18785.65 4.74035z"/>
        </g>
        <path class="dc-icon--apply-fill dc-icon--no-stroke" fill="#333"
              d="M5.86842 7.92h1v10.56h-1zM8.55263 7.92h1v10.56h-1zM11.23684 7.92h1v10.56h-1z"/>
    </g>
</svg>
