<?xml version="1.0" standalone="yes"?>
<!DOCTYPE svg PUBLIC "-//W3C//DTD SVG 1.1//EN" "http://www.w3.org/Graphics/SVG/1.1/DTD/svg11.dtd">
<svg version="1.1" xmlns="http://www.w3.org/2000/svg" viewBox="0 0 32 32">
    <path d="M20 16.267c0-0.133 0-0.133 0-0.267s0-0.133 0-0.267 0-0.133-0.133-0.267c0-0.133-0.133-0.133-0.133-0.267 0 0 0-0.133 0-0.133l-5.333-6.667c-0.4-0.533-1.333-0.667-1.867-0.267-0.533 0.667-0.667 1.467-0.267 2l4.667 5.867-4.667 5.867c-0.4 0.533-0.4 1.467 0.267 1.867 0.267 0.133 0.533 0.267 0.8 0.267 0.4 0 0.8-0.133 1.067-0.533l5.333-6.667c0 0 0-0.133 0-0.133 0-0.133 0.133-0.133 0.133-0.267 0.133 0 0.133 0 0.133-0.133z"></path>
</svg>
