<?xml version="1.0" standalone="yes"?>
<!DOCTYPE svg PUBLIC "-//W3C//DTD SVG 1.1//EN" "http://www.w3.org/Graphics/SVG/1.1/DTD/svg11.dtd">
<svg version="1.1" xmlns="http://www.w3.org/2000/svg" viewBox="0 0 1024 1024">
    <path d="M379.607 182.619v-182.619h252.796v176.711c38.013 13.033 73.138 32.167 104.177 56.215l149.631-86.39 126.398 218.927-143.656 82.94c3.969 21.182 6.044 43.021 6.044 65.339 0 23.434-2.288 46.34-6.654 68.513l141.631 85.1-130.199 216.688-145.712-87.553c-30.416 23.142-64.672 41.6-101.66 54.282v173.227h-252.796v-179.134c-35.632-14.129-68.456-33.71-97.412-57.697l-156.396 90.295-126.398-218.927 157.674-91.033c-2.683-17.534-4.074-35.487-4.074-53.761 0-21.502 1.926-42.56 5.617-63.014l-156.582-94.084 130.199-216.688 157.245 94.482c27.136-21.321 57.451-38.863 90.128-51.82zM506.004 724.293c118.673 0 214.876-95.047 214.876-212.293s-96.203-212.293-214.876-212.293c-118.673 0-214.876 95.047-214.876 212.293s96.203 212.293 214.876 212.293z"></path>
</svg>
