<?xml version="1.0" standalone="yes"?>
<!DOCTYPE svg PUBLIC "-//W3C//DTD SVG 1.1//EN" "http://www.w3.org/Graphics/SVG/1.1/DTD/svg11.dtd">
<svg version="1.1" xmlns="http://www.w3.org/2000/svg" viewBox="0 0 1024 1024">
    <path d="M567.467 512l149.333-187.733c12.8-17.067 12.8-46.933-8.533-59.733-17.067-12.8-46.933-12.8-59.733 8.533l-136.533 170.667-136.533-170.667c-12.8-17.067-42.667-21.333-59.733-8.533s-21.333 42.667-8.533 59.733l149.333 187.733-149.333 187.733c-12.8 17.067-12.8 46.933 8.533 59.733 8.533 4.267 17.067 8.533 25.6 8.533 12.8 0 25.6-4.267 34.133-17.067l136.533-170.667 136.533 170.667c8.533 8.533 21.333 17.067 34.133 17.067 8.533 0 17.067-4.267 25.6-8.533 17.067-12.8 21.333-42.667 8.533-59.733l-149.333-187.733z"></path>
</svg>
