<?xml version="1.0" standalone="yes"?>
<!DOCTYPE svg PUBLIC "-//W3C//DTD SVG 1.1//EN" "http://www.w3.org/Graphics/SVG/1.1/DTD/svg11.dtd">
<svg width="16" height="16" viewBox="0 0 20 20" xmlns="http://www.w3.org/2000/svg">
    <path stroke="none" d="M10.05 20c1.35 0 2.625-.257 3.822-.771a9.912 9.912 0 0 0 3.131-2.107 9.912 9.912 0 0 0 2.107-3.131 9.582 9.582 0 0 0 .771-3.822c0-1.351-.257-2.625-.771-3.822a9.912 9.912 0 0 0-2.107-3.132 9.912 9.912 0 0 0-3.13-2.106A9.582 9.582 0 0 0 10.05.337c-1.35 0-2.625.258-3.822.772a9.912 9.912 0 0 0-3.131 2.106A9.912 9.912 0 0 0 .99 6.347a9.582 9.582 0 0 0-.771 3.822c0 1.35.257 2.624.771 3.822a9.912 9.912 0 0 0 2.107 3.131 9.912 9.912 0 0 0 3.131 2.107A9.582 9.582 0 0 0 10.05 20zm2.325-9.578l2.165 2.141c.276.292.414.641.414 1.048 0 .407-.138.756-.414 1.047a1.47 1.47 0 0 1-1.048.415 1.47 1.47 0 0 1-1.047-.415l-2.142-2.164-2.164 2.164a1.406 1.406 0 0 1-1.036.415c-.414 0-.76-.138-1.036-.415a1.43 1.43 0 0 1-.438-1.047c0-.407.146-.756.438-1.048l2.141-2.141-2.141-2.164a1.368 1.368 0 0 1-.438-1.036c0-.415.146-.76.438-1.036a1.368 1.368 0 0 1 1.036-.438c.414 0 .76.146 1.036.438l2.164 2.14 2.142-2.14a1.43 1.43 0 0 1 1.047-.438c.407 0 .756.146 1.048.438.276.276.414.621.414 1.036 0 .414-.138.76-.414 1.036l-2.165 2.164z"/>
</svg>
