<?xml version="1.0" encoding="UTF-8"?>
<!DOCTYPE svg PUBLIC "-//W3C//DTD SVG 1.1//EN" "http://www.w3.org/Graphics/SVG/1.1/DTD/svg11.dtd">
<svg viewBox="-1 -3 30 30" version="1.1" xmlns="http://www.w3.org/2000/svg" xmlns:xlink="http://www.w3.org/1999/xlink">
    <g stroke="none" strokeWidth="1">
        <g transform="translate(5.125239, 6.285714)">
            <path d="M17.6806955,1.92530722 L17.6806955,-1.77635684e-15 L10.5805992,-1.77635684e-15 C10.5805992,-1.77635684e-15 10.6549636,4.1544012 9.27545239,6.27485212 C7.89594122,8.39530304 4.24516254,9.7382195 4.24516254,9.7382195 L0,9.36415437 L0,13.4771505 L2.94678259,13.4771505 L2.9841085,13.4039889 C3.16582676,14.5341442 4.17362641,15.4024578 5.40243474,15.4024578 C6.62927856,15.4024578 7.63904273,14.5341442 7.81977873,13.4030262 L7.8580869,13.4771505 L17.7268618,13.4771505 C17.9380479,14.5726503 18.9340604,15.4024578 20.1363477,15.4024578 C21.3376527,15.4024578 22.3346475,14.5726503 22.5458336,13.4771505 L23.5742607,13.4771505 L23.5742607,6.73857527 L18.6629564,1.92530722 L17.6806955,1.92530722 Z M17.6806955,3.85061444 L18.6629564,3.85061444 L21.609739,6.73857527 L17.6806955,6.73857527 L17.6806955,3.85061444 L17.6806955,3.85061444 Z M21.609739,7.70122888 L21.609739,11.1070974 C21.1981717,10.7894217 20.6913251,10.5891897 20.1363477,10.5891897 C19.3554503,10.5891897 18.6668854,10.9781018 18.2179922,11.5518433 L17.6806955,11.5518433 L17.6806955,7.70122888 L21.609739,7.70122888 L21.609739,7.70122888 Z M5.40243474,14.2232071 C4.72467475,14.2232071 4.17460867,13.6956729 4.17460867,13.0449191 C4.17460867,12.3941652 4.72467475,11.8656684 5.40243474,11.8656684 C6.08019474,11.8656684 6.63026082,12.3941652 6.63026082,13.0449191 C6.63026082,13.6956729 6.08019474,14.2232071 5.40243474,14.2232071 L5.40243474,14.2232071 Z M5.40243474,10.5891897 C4.62153736,10.5891897 3.93297249,10.9781018 3.48309702,11.5518433 L1.96452173,11.5518433 L1.96452173,9.62814548 C1.96452173,9.62814548 3.94080496,9.86421477 4.89208067,9.62814548 C5.84335638,9.39207619 7.85859907,8.16546685 7.85859907,8.16546685 C7.85859907,8.16546685 9.19942751,6.5163256 9.61745146,5.55459017 C10.0354754,4.59285475 10.5709211,1.92530722 10.5709211,1.92530722 L15.7161738,1.92530722 L15.7161738,11.5518433 L7.32079021,11.5518433 C6.87091473,10.9781018 6.18333213,10.5891897 5.40243474,10.5891897 Z M18.9085216,13.0449191 C18.9085216,12.3941652 19.4585877,11.8656684 20.1363477,11.8656684 C20.8141077,11.8656684 21.3641738,12.3941652 21.3641738,13.0449191 C21.3641738,13.6956729 20.8141077,14.2232071 20.1363477,14.2232071 C19.4585877,14.2232071 18.9085216,13.6956729 18.9085216,13.0449191 Z" ></path>
        </g>
        <g>
            <path d="M8.20038252,0 C3.67172127,0 0,3.75257143 0,8.38095238 C0,13.0093333 3.67172127,16.7619048 8.20038252,16.7619048 C12.7290438,16.7619048 16.400765,13.0093333 16.400765,8.38095238 C16.400765,3.75257143 12.7290438,0 8.20038252,0 L8.20038252,0 Z M8.88374773,15.3294603 L8.88374773,13.968254 L7.51701731,13.968254 L7.51701731,15.3294603 C4.29358362,15.0012063 1.72276369,12.3737778 1.40158205,9.07936508 L2.73346084,9.07936508 L2.73346084,7.68253968 L1.40158205,7.68253968 C1.72276369,4.38812698 4.29358362,1.76069841 7.51701731,1.43244444 L7.51701731,2.79365079 L8.88374773,2.79365079 L8.88374773,1.43244444 C12.1071814,1.76069841 14.677318,4.38812698 14.999183,7.68253968 L13.6673042,7.68253968 L13.6673042,9.07936508 L14.999183,9.07936508 C14.677318,12.3737778 12.1071814,15.0012063 8.88374773,15.3294603 L8.88374773,15.3294603 Z" ></path>
            <path d="M12.3005738,6.98412698 L11.6172086,5.58730159 L8.20038252,7.68184127 L4.78355647,4.19047619 L4.10019126,4.88888889 L7.51701731,8.38095238 C7.51701731,8.76647619 7.82248156,9.07936508 8.20038252,9.07936508 C8.41632593,9.07936508 8.60083453,8.9704127 8.72589037,8.8111746 L12.3005738,6.98412698"></path>
        </g>
    </g>
</svg>
