<?xml version="1.0" encoding="UTF-8"?>
<!DOCTYPE svg PUBLIC "-//W3C//DTD SVG 1.1//EN" "http://www.w3.org/Graphics/SVG/1.1/DTD/svg11.dtd">
<svg viewBox="0 -9 33 33" version="1.1" xmlns="http://www.w3.org/2000/svg" xmlns:xlink="http://www.w3.org/1999/xlink">
    <g>
        <path strokeLinecap="square" d="M8.423.5H1.495M7.949 3H3M7.97 6H5"/>
        <path d="M27.53 2.083h-1.027V0H8v14.583h3.084l.039-.079a2.558 2.558 0 0 0 2.53 2.163c1.285 0 2.341-.94 2.53-2.164l.04.08h10.328a2.56 2.56 0 0 0 2.522 2.084 2.56 2.56 0 0 0 2.521-2.084h1.076V7.292l-5.14-5.209zm-1.027 2.084h1.028l3.084 3.125h-4.112V4.167zm4.112 4.166v3.686a2.467 2.467 0 0 0-1.542-.56c-.818 0-1.538.42-2.008 1.041h-.562V8.333h4.112zm-16.961 7.058a1.28 1.28 0 0 1-1.285-1.275c0-.705.575-1.276 1.285-1.276.709 0 1.285.571 1.285 1.276a1.28 1.28 0 0 1-1.285 1.275zM15.66 12.5c-.47-.62-1.19-1.042-2.007-1.042-.818 0-1.538.421-2.009 1.042h-1.59V2.083h14.392V12.5h-8.786zm12.127 1.616c0-.705.575-1.276 1.285-1.276.709 0 1.285.571 1.285 1.276a1.28 1.28 0 0 1-1.285 1.275 1.28 1.28 0 0 1-1.285-1.275z"/>
    </g>
</svg>
