<?xml version="1.0" standalone="yes"?>
<!DOCTYPE svg PUBLIC "-//W3C//DTD SVG 1.1//EN" "http://www.w3.org/Graphics/SVG/1.1/DTD/svg11.dtd">
<svg viewBox="-4 -8 32 32" version="1.1" xmlns="http://www.w3.org/2000/svg">
    <path strokeWidth="1%" d="M19.7916667,2.08333333 L18.75,2.08333333 L18.75,0 L0,0 L0,14.5833333 L3.125,14.5833333 L3.16458333,14.5041667 C3.35729167,15.7270833 4.42604167,16.6666667 5.72916667,16.6666667 C7.03020833,16.6666667 8.10104167,15.7270833 8.29270833,14.503125 L8.33333333,14.5833333 L18.7989583,14.5833333 C19.0229167,15.76875 20.0791667,16.6666667 21.3541667,16.6666667 C22.628125,16.6666667 23.6854167,15.76875 23.909375,14.5833333 L25,14.5833333 L25,7.29166667 L19.7916667,2.08333333 L19.7916667,2.08333333 Z M18.75,4.16666667 L19.7916667,4.16666667 L22.9166667,7.29166667 L18.75,7.29166667 L18.75,4.16666667 L18.75,4.16666667 Z M22.9166667,8.33333333 L22.9166667,12.01875 C22.4802083,11.675 21.9427083,11.4583333 21.3541667,11.4583333 C20.5260417,11.4583333 19.7958333,11.8791667 19.3197917,12.5 L18.75,12.5 L18.75,8.33333333 L22.9166667,8.33333333 L22.9166667,8.33333333 Z M5.72916667,15.390625 C5.01041667,15.390625 4.42708333,14.8197917 4.42708333,14.115625 C4.42708333,13.4114583 5.01041667,12.8395833 5.72916667,12.8395833 C6.44791667,12.8395833 7.03125,13.4114583 7.03125,14.115625 C7.03125,14.8197917 6.44791667,15.390625 5.72916667,15.390625 L5.72916667,15.390625 Z M7.76354167,12.5 C7.28645833,11.8791667 6.55729167,11.4583333 5.72916667,11.4583333 C4.90104167,11.4583333 4.17083333,11.8791667 3.69375,12.5 L2.08333333,12.5 L2.08333333,2.08333333 L16.6666667,2.08333333 L16.6666667,12.5 L7.76354167,12.5 L7.76354167,12.5 Z M20.0520833,14.115625 C20.0520833,13.4114583 20.6354167,12.8395833 21.3541667,12.8395833 C22.0729167,12.8395833 22.65625,13.4114583 22.65625,14.115625 C22.65625,14.8197917 22.0729167,15.390625 21.3541667,15.390625 C20.6354167,15.390625 20.0520833,14.8197917 20.0520833,14.115625 Z"></path>
</svg>
