<?xml version="1.0" standalone="yes"?>
<!DOCTYPE svg PUBLIC "-//W3C//DTD SVG 1.1//EN" "http://www.w3.org/Graphics/SVG/1.1/DTD/svg11.dtd">
<svg version="1.1" xmlns="http://www.w3.org/2000/svg" viewBox="0 0 22 22" stroke="none">
    <path d="M9.8632,1.744 C4.5616,1.744 0.2632,6.0424 0.2632,11.344 C0.2632,16.6464 4.5616,20.944 9.8632,20.944 C15.1656,20.944 19.4632,16.6464 19.4632,11.344 C19.4632,6.0424 15.1656,1.744 9.8632,1.744 L9.8632,1.744 Z M9.8632,19.344 C5.452,19.344 1.8632,15.7552 1.8632,11.344 C1.8632,6.9328 5.452,3.344 9.8632,3.344 C14.2744,3.344 17.8632,6.9328 17.8632,11.344 C17.8632,15.7552 14.2744,19.344 9.8632,19.344 L9.8632,19.344 Z"></path>
    <path d="M12.84,5.8008 C12.1432,5.328 11.2264,5.0912 10.092,5.0912 C8.6352,5.0912 7.5544,5.4296 6.8488,6.1096 C6.1432,6.7888 5.7392,7.6848 5.6344,8.7984 L8.6632,9.1736 C8.7312,8.564 8.8864,8.1376 9.128,7.8936 C9.3704,7.6488 9.676,7.5264 10.0456,7.5264 C10.3896,7.5264 10.6456,7.6056 10.8144,7.764 C10.984,7.9232 11.068,8.1456 11.068,8.4312 C11.068,8.7184 10.8576,9.0328 10.436,9.376 C9.6448,10.032 9.136,10.4904 8.9096,10.7504 C8.6832,11.0104 8.5128,11.2976 8.3984,11.6128 C8.284,11.9272 8.2264,12.3376 8.2264,12.8424 L8.2264,13.1392 L11.1928,13.1392 C11.1928,12.7328 11.2616,12.404 11.4,12.152 C11.5376,11.8992 11.8696,11.5648 12.3952,11.1488 C13.1504,10.5552 13.6496,10.0528 13.8936,9.6416 C14.1384,9.2304 14.2608,8.804 14.2608,8.3608 C14.2608,7.2944 13.788,6.4408 12.84,5.8008"></path>
    <path d="M11.2112,14.7952 L8.5152,14.7952 C8.3824,14.7952 8.2744,14.9032 8.2744,15.036 L8.2744,17.3568 C8.2744,17.4896 8.3824,17.5976 8.5152,17.5976 L11.2112,17.5976 C11.344,17.5976 11.452,17.4896 11.452,17.3568 L11.452,15.036 C11.452,14.9032 11.344,14.7952 11.2112,14.7952"></path>
</svg>
