<?xml version="1.0" standalone="yes"?>
<!DOCTYPE svg PUBLIC "-//W3C//DTD SVG 1.1//EN" "http://www.w3.org/Graphics/SVG/1.1/DTD/svg11.dtd">
<svg version="1.1" xmlns="http://www.w3.org/2000/svg" width="1024" height="1024"
     viewBox="0 0 1024 1024">
    <path fill="#000"
          d="M1021.099 649.216c-1.579-104.107-134.315-323.072-211.328-338.176-37.76-9.045-87.595 67.925-98.219 54.357-10.539-13.611 4.565-335.189-104.021-336.725-63.531 0-103.893 63.104-220.501 163.072-95.147 81.536-208.384 98.133-275.029 168.448-217.387 223.573-59.691 453.547-12.885 506.325 46.805 52.864 239.573 199.339 532.437-6.016 36.096-25.216 92.16 33.237 178.176 30.251 235.563-25.685 208.341-214.315 211.371-241.536zM907.349 748.117c-112.725 109.355-227.499-18.859-227.499-18.859-25.643-28.715-54.229-57.429-107.179 13.525-170.624 244.523-380.459 86.059-380.459 86.059s-131.285-78.549-96.597-268.757c33.195-135.851 188.203-177.963 256.64-200.789 68.48-22.827 173.653-140.459 217.515-138.923 31.531 0 33.109 58.88 28.672 134.357-4.565 75.477-9.088 179.584 49.835 196.267 67.925 7.552 107.179-96.64 149.419-98.133s126.933 107.179 126.933 107.179 65.707 92.971-17.28 188.075z"></path>
    <path fill="#000"
          d="M501.717 397.056c-46.848 4.565-24.107 42.283-140.416 71.637-212.907 49.152-137.387 213.717-137.387 213.717s33.152 87.552 138.795 87.552c126.848 0 147.413-117.461 149.589-149.461 2.219-32.043 18.091-224.939-10.581-223.445z"></path>
    <path fill="#000"
          d="M870.144 633.387c0 36.265-30.774 65.664-68.736 65.664s-68.736-29.399-68.736-65.664c0-36.265 30.774-65.664 68.736-65.664s68.736 29.399 68.736 65.664z"></path>
</svg>
