<?xml version="1.0" standalone="yes"?>
<!DOCTYPE svg PUBLIC "-//W3C//DTD SVG 1.1//EN" "http://www.w3.org/Graphics/SVG/1.1/DTD/svg11.dtd">
<svg viewBox="0 0 30 32">
    <path d="M25.143 17.714v8.571q0 0.464-0.339 0.804t-0.804 0.339h-6.857v-6.857h-4.571v6.857h-6.857q-0.464 0-0.804-0.339t-0.339-0.804v-8.571q0-0.018 0.009-0.054t0.009-0.054l10.268-8.464 10.268 8.464q0.018 0.036 0.018 0.107zM29.125 16.482l-1.107 1.321q-0.143 0.161-0.375 0.196h-0.054q-0.232 0-0.375-0.125l-12.357-10.304-12.357 10.304q-0.214 0.143-0.429 0.125-0.232-0.036-0.375-0.196l-1.107-1.321q-0.143-0.179-0.125-0.42t0.196-0.384l12.839-10.696q0.571-0.464 1.357-0.464t1.357 0.464l4.357 3.643v-3.482q0-0.25 0.161-0.411t0.411-0.161h3.429q0.25 0 0.411 0.161t0.161 0.411v7.286l3.911 3.25q0.179 0.143 0.196 0.384t-0.125 0.42z"></path>
</svg>
