<?xml version="1.0" standalone="yes"?>
<!DOCTYPE svg PUBLIC "-//W3C//DTD SVG 1.1//EN" "http://www.w3.org/Graphics/SVG/1.1/DTD/svg11.dtd">
<svg version="1.1" xmlns="http://www.w3.org/2000/svg" viewBox="0 0 32 32" stroke="none">
    <path d="M16.64 30.72c7.49 0 14.080-6.59 14.080-14.080 0-8.581-6.414-15.36-14.080-15.36-8.77 0-15.36 6.59-15.36 15.36 0 7.666 6.779 14.080 15.36 14.080zM16.64 32c-9.477 0-16.64-7.163-16.64-15.36 0-9.477 7.163-16.64 16.64-16.64 8.197 0 15.36 7.163 15.36 16.64 0 8.197-7.163 15.36-15.36 15.36z"></path>
    <path d="M17.92 8.96h-3.84v-3.84h3.84v3.84zM14.080 11.52h3.84v15.36h-3.84v-10.24h-2.56l2.56-5.12z"></path>
</svg>
