<?xml version="1.0" standalone="yes"?>
<!DOCTYPE svg PUBLIC "-//W3C//DTD SVG 1.1//EN" "http://www.w3.org/Graphics/SVG/1.1/DTD/svg11.dtd">
<svg version="1.1" xmlns="http://www.w3.org/2000/svg" width="30" height="30" viewBox="-1 0 30 30">
    <path fill="#333" stroke="none" fill-rule="evenodd" d="M.268 4.303L3.48 7.515l1.53.765 2.14-1.53L8.223 4.61l-.918-1.07L4.092.325S7.61-.898 10.21 1.396c2.6 2.295 2.294 6.884 2.294 6.884l1.071 1.224s-1.377 2.447.153 3.518c1.53 1.07 1.989.764 1.989.764s-.306 1.224 1.07 2.295c1.377 1.07 1.836.612 1.836.612s-.918 1.223.153 1.988c1.07.765 1.988 1.07 1.988 1.07s-.765 1.836 1.377 2.754c2.141.918 3.518-1.07 3.518-1.07l2.141 2.294s1.224 2.447-.153 3.977c-1.376 1.53-4.13.306-4.13.306L15.87 20.21s1.071-1.224.765-2.6c-.306-1.377-1.988-1.99-1.988-1.99l-3.977-.611-1.989-1.988s-.611-.306-1.07-.306c-.46 0-4.13.306-6.272-2.142C-.803 8.127.268 4.303.268 4.303zm9.024 21.414s-3.059-2.141-3.365-2.906c-.306-.765.153-1.836.153-2.447 0-.612.153-3.06.153-3.06s.306-.611 1.07-1.376c.766-.765 1.53 0 3.366.459 1.835.459 3.824.306 3.824.306s1.07.764 1.07 1.682c0 .918-1.07 1.377-1.07 1.377l-2.906-.306s-.765 0-1.377.459-.765 1.07-.765 1.07l-.153 4.742zm.918.459s.612-4.742 1.07-5.2c.46-.46 2.295 0 3.06 0 .765 0 1.835.917 1.835.917L20 26.33s-1.07.306-2.753 1.07C15.564 28.165 15.258 30 15.258 30l-5.048-3.824zm6.259-18.661s1.236-.765 2 0c.766.765.154 1.989.154 1.989L16.48 12.41s-1.07.612-1.988-.153c-.918-.765-.153-1.836-.153-1.836l2.129-2.906zm2.746 2.787s1.236-.765 2 0c.766.765.154 1.989.154 1.989l-2.142 2.906s-1.07.612-1.988-.153c-.918-.765-.153-1.835-.153-1.835l2.129-2.907zm2.447 3.06s1.236-.765 2.001 0c.765.764.153 1.988.153 1.988l-2.141 2.906s-1.071.612-1.989-.153c-.917-.765-.153-1.835-.153-1.835l2.13-2.907zm1.989 3.67s1.236-.764 2 0c.765.765.154 1.989.154 1.989l-1.683 2.294s-1.07.612-1.988-.153c-.918-.764-.153-1.835-.153-1.835l1.67-2.295z"/>
</svg>
