<svg aria-labelledby="title" id="dcg-icon-list" viewBox="0 0 32 32"><title>list</title><path class="path1" d="M4.571 23.429v3.429q0 0.232-0.17 0.402t-0.402 0.17h-3.429q-0.232 0-0.402-0.17t-0.17-0.402v-3.429q0-0.232 0.17-0.402t0.402-0.17h3.429q0.232 0 0.402 0.17t0.17 0.402zM4.571 16.571v3.429q0 0.232-0.17 0.402t-0.402 0.17h-3.429q-0.232 0-0.402-0.17t-0.17-0.402v-3.429q0-0.232 0.17-0.402t0.402-0.17h3.429q0.232 0 0.402 0.17t0.17 0.402zM4.571 9.714v3.429q0 0.232-0.17 0.402t-0.402 0.17h-3.429q-0.232 0-0.402-0.17t-0.17-0.402v-3.429q0-0.232 0.17-0.402t0.402-0.17h3.429q0.232 0 0.402 0.17t0.17 0.402zM32 23.429v3.429q0 0.232-0.17 0.402t-0.402 0.17h-24q-0.232 0-0.402-0.17t-0.17-0.402v-3.429q0-0.232 0.17-0.402t0.402-0.17h24q0.232 0 0.402 0.17t0.17 0.402zM4.571 2.857v3.429q0 0.232-0.17 0.402t-0.402 0.17h-3.429q-0.232 0-0.402-0.17t-0.17-0.402v-3.429q0-0.232 0.17-0.402t0.402-0.17h3.429q0.232 0 0.402 0.17t0.17 0.402zM32 16.571v3.429q0 0.232-0.17 0.402t-0.402 0.17h-24q-0.232 0-0.402-0.17t-0.17-0.402v-3.429q0-0.232 0.17-0.402t0.402-0.17h24q0.232 0 0.402 0.17t0.17 0.402zM32 9.714v3.429q0 0.232-0.17 0.402t-0.402 0.17h-24q-0.232 0-0.402-0.17t-0.17-0.402v-3.429q0-0.232 0.17-0.402t0.402-0.17h24q0.232 0 0.402 0.17t0.17 0.402zM32 2.857v3.429q0 0.232-0.17 0.402t-0.402 0.17h-24q-0.232 0-0.402-0.17t-0.17-0.402v-3.429q0-0.232 0.17-0.402t0.402-0.17h24q0.232 0 0.402 0.17t0.17 0.402z"></path></svg>
