<?xml version="1.0" standalone="yes"?>
<!DOCTYPE svg PUBLIC "-//W3C//DTD SVG 1.1//EN" "http://www.w3.org/Graphics/SVG/1.1/DTD/svg11.dtd">
<svg version="1.1" xmlns="http://www.w3.org/2000/svg" viewBox="0 0 1024 1024">
    <path d="M998.4 477.867c-17.067-12.8-46.933-12.8-59.733 8.533l-170.667 213.333-140.8 174.933-136.533-136.533c-17.067-17.067-42.667-17.067-59.733 0s-17.067 42.667 0 59.733l170.667 170.667c8.533 8.533 17.067 12.8 29.867 12.8 0 0 0 0 4.267 0 12.8 0 21.333-8.533 29.867-17.067l341.333-426.667c12.8-17.067 12.8-42.667-8.533-59.733z"></path>
    <path d="M174.933 341.333h379.733v42.667h-379.733v-42.667z"></path>
    <path d="M174.933 597.333h379.733v42.667h-379.733v-42.667z"></path>
    <path d="M174.933 469.333h379.733v42.667h-379.733v-42.667z"></path>
    <path d="M174.933 768h162.133c0-12.8 4.267-29.867 8.533-42.667h-170.667v42.667z"></path>
    <path d="M85.333 930.133v-768h106.667v72.533h345.6v-72.533h106.667v601.6l85.333-110.933v-576h-192v-68.267h-345.6v64h-192v938.667h524.8l-85.333-85.333h-354.133zM234.667 51.2h260.267v140.8h-260.267v-140.8z"></path>
</svg>
