<?xml version="1.0" standalone="yes"?>
<!DOCTYPE svg PUBLIC "-//W3C//DTD SVG 1.1//EN" "http://www.w3.org/Graphics/SVG/1.1/DTD/svg11.dtd">
<svg version="1.1" xmlns="http://www.w3.org/2000/svg" width="640" height="640"
     viewBox="0 0 640 640">
    <path fill="#000"
          d="M275.744 423.264c-16.832 88.128-37.344 172.608-98.176 216.736-18.752-133.184 27.552-233.184 49.088-339.36-36.704-61.76 4.416-185.984 81.76-155.36 95.2 37.632-82.432 229.504 36.8 253.504 124.512 24.992 175.328-216 98.112-294.368-111.52-113.216-324.672-2.656-298.432 159.424 6.368 39.616 47.296 51.616 16.352 106.304-71.392-15.808-92.704-72.128-89.952-147.2 4.416-122.88 110.368-208.864 216.672-220.8 134.432-15.072 260.608 49.376 278.048 175.808 19.616 142.752-60.672 297.376-204.448 286.24-38.976-3.040-55.296-22.368-85.824-40.928z"></path>
</svg>
