<svg viewBox="0 0 16 16" xmlns="http://www.w3.org/2000/svg">
    <g id="Elements">
        <g id="Icons" transform="translate(-954 -253)">
            <g id="Plus-fill" transform="translate(954 253)">
                <path d="M8,0 C3.582,0 0,3.581 0,8 C0,12.418 3.582,16 8,16 C12.418,16 16,12.418 16,8 C16,3.581 12.418,0 8,0 L8,0 Z"
                id="Fill-8"/>
                <g id="Plus" transform="translate(2 2)" fill="#FFF">
                    <path d="M10.125,4.625 L7.375,4.625 L7.375,1.875 C7.375,1.116 6.7596875,0.5 6,0.5 C5.241,0.5 4.625,1.116 4.625,1.875 L4.625,4.625 L1.875,4.625 C1.116,4.625 0.5,5.241 0.5,6 C0.5,6.7596875 1.116,7.375 1.875,7.375 L4.625,7.375 L4.625,10.125 C4.625,10.8846875 5.241,11.5 6,11.5 C6.7596875,11.5 7.375,10.8846875 7.375,10.125 L7.375,7.375 L10.125,7.375 C10.884,7.375 11.5,6.7596875 11.5,6 C11.5,5.241 10.884,4.625 10.125,4.625"
                    id="Fill-15" />
                </g>
            </g>
        </g>
    </g>
</svg>