<?xml version="1.0" standalone="yes"?>
<!DOCTYPE svg PUBLIC "-//W3C//DTD SVG 1.1//EN" "http://www.w3.org/Graphics/SVG/1.1/DTD/svg11.dtd">
<svg version="1.1" xmlns="http://www.w3.org/2000/svg" width="1024" height="1024"
     viewBox="0 0 1024 1024">
    <path fill="#000"
          d="M1015.467 597.333l-537.6-554.667h-435.2v430.933l554.667 541.867 418.133-418.133zM597.333 896l-469.333-460.8v-307.2h311.467l456.533 469.333-298.667 298.667z"></path>
    <path fill="#000"
          d="M469.333 341.333c0-72.533-55.467-128-128-128s-128 55.467-128 128c0 72.533 55.467 128 128 128s128-55.467 128-128zM256 341.333c0-46.933 38.4-85.333 85.333-85.333s85.333 38.4 85.333 85.333-38.4 85.333-85.333 85.333c-46.933 0-85.333-38.4-85.333-85.333z"></path>
</svg>
