<?xml version="1.0" standalone="yes"?>
<!DOCTYPE svg PUBLIC "-//W3C//DTD SVG 1.1//EN" "http://www.w3.org/Graphics/SVG/1.1/DTD/svg11.dtd">
<svg version="1.1" xmlns="http://www.w3.org/2000/svg" viewBox="0 0 22 19" stroke="none">
    <path d="M17.6,5.03448 L15.65432,5.03448 L15.65432,0 L5.50528,0 L5.50528,5.03448 L3.52,5.03448 C1.57608,5.03448 0,6.61056 0,8.55448 L0,12.96504 C0,14.90896 1.57608,16.48504 3.52,16.48504 L4.32344,16.48504 L3.74528,18.48 L17.41432,18.48 L16.83616,16.48504 L17.6,16.48504 C19.54392,16.48504 21.12,14.90896 21.12,12.96504 L21.12,8.55448 C21.12,6.61056 19.54392,5.03448 17.6,5.03448 L17.6,5.03448 Z M6.38528,0.88 L14.77432,0.88 L14.77432,7.82936 L6.38528,7.82936 L6.38528,0.88 Z M4.91656,17.6 L6.16616,13.28976 L14.99344,13.28976 L16.24304,17.6 L4.91656,17.6 L4.91656,17.6 Z M19.36,12.96504 C19.36,13.93568 18.56976,14.72504 17.6,14.72504 L16.33456,14.75672 L15.86552,13.13752 L16.75608,13.13752 L16.75608,12.22936 L4.36304,12.22936 L4.36304,13.13752 L5.29408,13.13752 L4.83384,14.72504 L3.52,14.72504 C2.54936,14.72504 1.76,13.93568 1.76,12.96504 L1.76,8.55448 C1.76,7.58384 2.54936,6.79448 3.52,6.79448 L5.50528,6.79448 L5.50528,7.82936 L3.48304,7.82936 L3.48304,8.73752 L17.63608,8.73752 L17.63608,7.82936 L15.65432,7.82936 L15.65432,6.79448 L17.6,6.79448 C18.56976,6.79448 19.36,7.58384 19.36,8.55448 L19.36,12.96504 L19.36,12.96504 Z"></path>
</svg>
