<?xml version="1.0" standalone="yes"?>
<!DOCTYPE svg PUBLIC "-//W3C//DTD SVG 1.1//EN" "http://www.w3.org/Graphics/SVG/1.1/DTD/svg11.dtd">
<svg version="1.1" xmlns="http://www.w3.org/2000/svg" width="30" height="30" viewBox="0 -1 30 30">
    <g fill="#333" stroke="none" fill-rule="evenodd">
        <path d="M25.778 3.933l-3.772 6.533-7.216-.433 2.011-1.328s-2.01-3.815-3.05-5.494c-.854-1.38-2.26-2.55-2.26-2.55l8.688.04s1.472-.395 1.866 1.077l.79 2.944 2.943-.789z"/>
        <path d="M11.307 11.755L4.774 7.983l3.772-6.532s2.011-1.328 3.339.683l2.655 4.022-3.233 5.6zM20.203 28.444l-4.559-5.716 4.527-5.06v1.54l5.884-.001c1.613 0 3.339-.684 3.339-.684l-4.266 7.505s-.539 1.015-1.617 1.015c-1.077 0-3.306-.726-3.306-.726l-.002 2.127z"/>
        <path d="M19.878 12.818l6.533-3.772 3.771 6.533s.145 2.406-2.26 2.55l-4.811.289-3.233-5.6z"/>
        <g>
            <path d="M.557 10.124h7.544l3.233 6.466-2.156-1.078S7.023 18.745 5.945 20.9c-.73 1.461-1.077 3.233-1.077 3.233L.558 16.59s-1.079-1.078 0-2.155l2.154-2.156-2.155-2.155z"/>
            <path d="M14.567 18.745v7.544H7.023s-2.155-1.078-1.078-3.233l2.156-4.31h6.466z"/>
        </g>
    </g>
</svg>
