<?xml version="1.0" standalone="yes"?>
<!DOCTYPE svg PUBLIC "-//W3C//DTD SVG 1.1//EN" "http://www.w3.org/Graphics/SVG/1.1/DTD/svg11.dtd">
<svg version="1.1" xmlns="http://www.w3.org/2000/svg" viewBox="0 0 24 24">
    <path class="dc-icon--no-stroke dc-icon--apply-fill" stroke="none" fill-rule="nonzero" d="M4.461 2.658A11.956 11.956 0 0 1 11.996 0C18.626 0 24 5.373 24 12s-5.374 12-12.004 12C5.516 24 .234 18.866 0 12.444h2.67a9.335 9.335 0 0 0 9.326 8.89c5.156 0 9.336-4.18 9.336-9.334 0-5.155-4.18-9.333-9.336-9.333A9.297 9.297 0 0 0 6.437 4.5l2.976 2.775L.103 9.95 2.12.476l2.34 2.182z"/>
</svg>
