<?xml version="1.0" standalone="yes"?>
<!DOCTYPE svg PUBLIC "-//W3C//DTD SVG 1.1//EN" "http://www.w3.org/Graphics/SVG/1.1/DTD/svg11.dtd">
<svg version="1.1" xmlns="http://www.w3.org/2000/svg" width="30" height="30" viewBox="-2.5 0 30 30">
    <g fill="#333" stroke="none" fill-rule="evenodd">
        <path fill-rule="nonzero" d="M2 8.88v5.603c0 5.125 3.36 9.53 10.406 13.264 7.055-3.802 10.422-8.212 10.422-13.264V8.879c-4.315-1.013-7.906-3.048-10.414-5.691C9.906 5.83 6.315 7.866 2 8.879zM0 7.24C6.207 6.207 10.345 3.103 12.414 0c2.069 3.103 6.207 6.207 12.414 7.241v7.242c0 6.129-4.138 11.301-12.414 15.517C4.138 25.862 0 20.69 0 14.483V7.24z"/>
        <path d="M18.386 10.657a.892.892 0 0 0-.61-.172.612.612 0 0 0-.536.325l-3.266 4.068-2.693 3.343-2.598-2.598a.787.787 0 0 0-1.146 0 .787.787 0 0 0 0 1.146l3.267 3.247c.076.09.159.153.248.191.089.039.197.058.325.058h.076a.471.471 0 0 0 .315-.105l.258-.22 6.513-8.156a.83.83 0 0 0 .172-.573c-.013-.216-.12-.401-.325-.554z"/>
    </g>
</svg>
