<svg xmlns="http://www.w3.org/2000/svg" viewBox="-1 -1 15 22">
    <path class="dc-icon--apply-fill" fill-rule="evenodd" d="M6.634 0a6.69 6.69 0 0 1 2.588.502A6.703 6.703 0 0 1 11.34 1.88a6.739 6.739 0 0 1 1.446 2.057c.361.787.548 1.634.561 2.54 0 .669-.173 1.394-.521 2.175-.348.78-.561 1.256-.64 1.427-2.402 4.449-3.816 7.06-4.242 7.834l-.64 1.162-.67.925-.668-.925c-.04-.04-.26-.44-.66-1.201-.4-.761-1.775-3.386-4.124-7.874-.052-.04-.262-.472-.63-1.3C.184 7.875 0 7.107 0 6.399c0-.893.17-1.726.512-2.5A6.283 6.283 0 0 1 1.929 1.87 6.792 6.792 0 0 1 6.634 0zm0 9.921a3.478 3.478 0 0 1-2.5-1.004 3.545 3.545 0 0 1-1.122-2.44c0-.972.36-1.789 1.082-2.451a3.634 3.634 0 0 1 2.54-.995c1.01 0 1.863.332 2.559.995.695.662 1.043 1.48 1.043 2.45 0 .958-.357 1.772-1.073 2.441a3.58 3.58 0 0 1-2.53 1.004z"/>
</svg>
