<?xml version="1.0" standalone="yes"?>
<!DOCTYPE svg PUBLIC "-//W3C//DTD SVG 1.1//EN" "http://www.w3.org/Graphics/SVG/1.1/DTD/svg11.dtd">
<svg version="1.1" xmlns="http://www.w3.org/2000/svg" viewBox="0 0 32 32">
    <path class="path1" d="M16 1.333c-8.1 0-14.667 6.567-14.667 14.667s6.567 14.667 14.667 14.667c8.1 0 14.667-6.567 14.667-14.667s-6.567-14.667-14.667-14.667v0zM17.222 21.958h-2.444v6.202c-5.765-0.574-10.362-5.172-10.938-10.938h6.202v-2.444h-6.202c0.576-5.765 5.172-10.362 10.938-10.938v6.202h2.444v-6.202c5.765 0.576 10.363 5.172 10.938 10.938h-6.202v2.444h6.202c-0.574 5.765-5.172 10.363-10.938 10.938v-6.202z"></path>
</svg>
