<?xml version="1.0" standalone="yes"?>
<!DOCTYPE svg PUBLIC "-//W3C//DTD SVG 1.1//EN" "http://www.w3.org/Graphics/SVG/1.1/DTD/svg11.dtd">
<svg version="1.1" xmlns="http://www.w3.org/2000/svg" viewBox="0 0 25 25">
    <path d="M9.403,12.063 C12.633,12.063 15.251,9.444 15.251,6.214 C15.251,2.984 12.633,0.366 9.403,0.366 C6.173,0.366 3.554,2.984 3.554,6.214 C3.554,9.444 6.173,12.063 9.403,12.063 L9.403,12.063 Z M9.403,2.366 C11.525,2.366 13.251,4.092 13.251,6.214 C13.251,8.337 11.525,10.063 9.403,10.063 C7.281,10.063 5.554,8.337 5.554,6.214 C5.554,4.092 7.281,2.366 9.403,2.366 L9.403,2.366 Z"></path>
    <path d="M15.048,11.731 L9.618,14.731 L4.139,11.731 C1.93,11.731 0.139,14.522 0.139,16.731 L0.139,24.303 L19.048,24.303 L19.048,16.731 C19.048,14.522 17.257,11.731 15.048,11.731 L15.048,11.731 Z M17.048,22.303 L2.139,22.303 L2.139,16.731 C2.139,15.628 3.036,13.731 4.139,13.731 L9.739,16.731 L15.048,13.731 C16.151,13.731 17.048,15.628 17.048,16.731 L17.048,22.303 L17.048,22.303 Z"></path>
</svg>
